<svg width="25" height="25" viewBox="0 0 25 25" fill="none" xmlns="http://www.w3.org/2000/svg">
<g id="Paint">
<g id="Group">
<path id="Vector" d="M19.0325 6.50656C19.0219 5.89681 18.5962 5.46908 17.9841 5.4515C17.7075 5.4433 17.7098 5.4433 17.7059 5.16167C17.7032 4.98667 17.7294 4.80855 17.6766 4.63746C17.5716 4.29606 17.3185 4.12419 16.9181 4.12302C16.0337 4.12145 15.1497 4.12341 14.2654 4.12145C14.0576 4.12145 14.0416 4.10387 14.0388 3.90075C14.0361 3.67302 14.0404 3.44529 14.0377 3.21717C14.0334 2.79804 13.8752 2.59804 13.4736 2.5H2.50741C2.22187 2.55273 2.05273 2.72187 2 3.00819V21.9918C2.05273 22.2777 2.22187 22.4473 2.50741 22.5H14.1373C14.54 22.4023 14.6958 22.2051 14.7013 21.7848C14.7033 21.6031 14.7029 21.4203 14.7013 21.2383C14.6982 20.8321 14.5634 20.6258 14.1869 20.4782C14.0779 20.4352 14.0377 20.3723 14.0377 20.2606C14.0388 18.7575 14.0388 17.2536 14.0377 15.7505C14.0377 15.6314 14.0791 15.563 14.197 15.5181C14.5517 15.383 14.7001 15.1556 14.7013 14.7705C14.7029 14.2693 14.7017 13.7681 14.7017 13.2674C14.7013 12.59 14.7037 11.9135 14.7001 11.2369C14.699 10.9932 14.6025 10.86 14.3959 10.7944C14.3263 10.7725 14.2552 10.767 14.1837 10.7623C14.0611 10.7541 14.0322 10.6819 14.0533 10.5745C14.0814 10.4319 14.1787 10.351 14.3025 10.2948C14.9771 9.98892 15.6443 9.66548 16.3161 9.35338C17.0177 9.02722 17.7212 8.70535 18.4176 8.36824C18.8321 8.16786 19.0364 7.8288 19.0337 7.36631C19.0317 7.07882 19.0372 6.79288 19.0325 6.50656ZM16.8083 4.83316C16.9505 4.83199 16.9931 4.86089 16.9903 5.01128C16.9798 5.57064 16.9821 6.12962 16.9892 6.68937C16.9907 6.8132 16.9548 6.83702 16.8372 6.83702C14.4978 6.83351 12.158 6.83351 9.8186 6.83702C9.69751 6.83702 9.65063 6.81515 9.65259 6.68C9.66079 6.12063 9.66079 5.56127 9.65259 5.0019C9.65063 4.85933 9.69868 4.83316 9.82836 4.83394C10.9983 4.83863 12.1678 4.83667 13.3373 4.83667C14.4947 4.83628 15.6513 4.83941 16.8083 4.83316ZM13.9884 14.6712C13.9896 14.7888 13.974 14.856 13.833 14.8384C13.6681 14.8177 13.4463 14.9095 13.3502 14.7994C13.2681 14.7048 13.322 14.4896 13.3213 14.3283C13.3201 13.4494 13.3232 12.5709 13.3181 11.6928C13.317 11.5506 13.3381 11.4893 13.5037 11.4928C13.9861 11.5022 13.9861 11.494 13.9861 11.9772V13.1486C13.9857 13.6564 13.983 14.1638 13.9884 14.6712ZM4.80776 3.16249C7.59755 3.166 10.3869 3.166 13.1763 3.16249C13.3033 3.1621 13.3271 3.20233 13.3232 3.31639C13.3142 3.53709 13.3111 3.75896 13.3236 3.98005C13.333 4.13161 13.2896 4.17497 13.1334 4.1738C12.0213 4.16637 10.9092 4.1695 9.7975 4.17028C9.23111 4.17028 8.99049 4.41051 8.99049 4.97495C8.99049 5.05972 8.98619 5.14409 8.99088 5.22885C8.99986 5.37885 9.00807 5.50853 8.8108 5.56517C8.69479 5.59877 8.65729 5.73236 8.66667 5.8597C8.67643 5.9972 8.74479 6.09876 8.87448 6.13743C8.97799 6.1679 8.99752 6.22258 8.99244 6.31907C8.98424 6.46828 8.98932 6.61867 8.99049 6.76789C8.994 7.22491 9.26509 7.49951 9.71782 7.4999C10.8553 7.50107 11.9936 7.50303 13.1314 7.49678C13.2775 7.49639 13.3263 7.52412 13.3248 7.6831C13.3166 8.6655 13.317 9.64869 13.3248 10.6315C13.3259 10.7893 13.2955 10.8545 13.1267 10.833C12.9463 10.81 12.7799 10.8498 12.6549 11.0776C12.6549 10.5069 12.6599 9.99595 12.6537 9.48463C12.6439 8.74675 12.0475 8.16278 11.3162 8.1663C10.601 8.16981 10.0108 8.74363 9.99906 9.46197C9.9893 10.028 10.001 10.5944 9.9932 11.1608C9.98813 11.5154 9.73891 11.7873 9.40376 11.8303C9.09556 11.8701 8.79362 11.6736 8.69323 11.3709C8.65964 11.2698 8.66393 11.1658 8.66393 11.0619C8.66354 10.0077 8.66667 8.953 8.66276 7.89872C8.66003 7.22569 8.27839 6.71203 7.66903 6.54758C6.89678 6.3386 6.11281 6.86398 6.01125 7.65693C5.97727 7.92333 5.99914 8.19012 5.99367 8.45691C5.9843 8.8737 5.70657 9.17174 5.32728 9.1694C4.94721 9.16784 4.66206 8.86745 4.66167 8.45262C4.65893 6.74132 4.66167 5.02925 4.65815 3.31717C4.65776 3.19921 4.68393 3.16249 4.80776 3.16249ZM2.88123 3.16092C3.19255 3.17655 3.50583 3.17342 3.81754 3.1621C3.96168 3.15624 3.99957 3.19296 3.99918 3.341C3.99332 5.04018 3.99371 6.73898 3.99566 8.43738C3.99684 9.1819 4.46206 9.72017 5.18275 9.82369C5.8761 9.9229 6.57764 9.37565 6.64405 8.6741C6.66475 8.45418 6.65928 8.23192 6.66007 8.01044C6.66202 7.4749 6.90967 7.16046 7.3331 7.16788C7.65458 7.17374 8.01355 7.40069 8.00184 8.00224C7.9827 9.04323 7.99246 10.085 7.99754 11.1264C8.00105 11.7943 8.40691 12.3209 9.00885 12.4604C9.85141 12.6557 10.6393 12.0498 10.6573 11.1819C10.6686 10.642 10.6588 10.1018 10.6604 9.56119C10.6619 9.1319 10.9401 8.82917 11.3276 8.83191C11.7139 8.83464 11.9885 9.13893 11.9896 9.569C11.9912 10.0834 11.9912 10.5975 11.9896 11.1119C11.9885 11.5416 12.1717 11.8654 12.5557 12.0584C12.6584 12.11 12.6553 12.1752 12.6553 12.2604C12.6549 13.0869 12.6549 13.9134 12.6553 14.74C12.6553 15.163 12.8166 15.3853 13.2177 15.4876C13.3135 15.5122 13.3217 15.5529 13.3213 15.6322C13.3197 17.2075 13.3185 18.7825 13.3232 20.3579C13.3232 20.4832 13.2842 20.5055 13.1681 20.5055C9.72172 20.5024 6.27531 20.5012 2.8285 20.5075C2.65819 20.5075 2.66288 20.4329 2.66288 20.311C2.66483 17.4864 2.66444 14.6615 2.66444 11.8369C2.66444 9.01823 2.666 6.19993 2.66014 3.38162C2.66014 3.20428 2.70311 3.15194 2.88123 3.16092ZM13.9545 21.8043C13.8603 21.882 13.6584 21.8336 13.5041 21.8336C9.96156 21.8348 6.41984 21.8324 2.87733 21.8395C2.69296 21.8395 2.65702 21.7852 2.66132 21.6149C2.67264 21.1692 2.66483 21.1684 3.11873 21.1684H8.34402C10.1577 21.1684 11.9709 21.1703 13.7841 21.1653C13.9349 21.1649 14.015 21.1828 13.9888 21.3586C13.9658 21.5102 14.0537 21.7215 13.9545 21.8043ZM18.1204 7.71162C16.7657 8.34559 15.4103 8.97839 14.0548 9.61041C14.0388 9.61783 14.0173 9.61392 13.9861 9.61627C13.9861 8.94362 13.9892 8.27567 13.9841 7.60732C13.983 7.45576 14.0834 7.50185 14.1552 7.50146C15.0583 7.49951 15.9618 7.50029 16.8646 7.4999C17.4028 7.4999 17.6509 7.25225 17.6513 6.71554C17.6513 6.63078 17.5872 6.16946 17.7696 6.16946C18.1434 6.16946 18.3122 6.08548 18.3122 6.4843C18.3122 6.7964 18.3169 7.10889 18.3149 7.42061C18.3134 7.55693 18.2415 7.65459 18.1204 7.71162Z" fill="#27282D"/>
<path id="Vector_2" d="M21.9771 16.8063C21.9619 16.6477 21.8717 16.5414 21.7115 16.5118C21.6357 16.4977 21.5553 16.4899 21.4799 16.4997C21.3361 16.5184 21.3049 16.459 21.3139 16.3274C21.3299 16.093 21.3107 15.8586 21.2607 15.6294C20.9611 14.2579 19.7643 13.3915 18.3452 13.5169C17.0655 13.6298 16.0464 14.7466 15.987 16.102C15.9819 16.2188 16.0225 16.3579 15.9718 16.4477C15.9065 16.5653 15.7487 16.4774 15.6335 16.4989C15.4687 16.5301 15.3569 16.6133 15.328 16.7813C15.3011 16.9422 15.3694 17.0821 15.5159 17.1274C15.6519 17.1692 15.6581 17.2387 15.6581 17.3508C15.6554 18.7887 15.6655 20.2261 15.6507 21.664C15.6464 22.0722 15.7854 22.3499 16.1667 22.4999H21.1228C21.5138 22.3616 21.6553 22.0812 21.6517 21.673C21.6396 20.2355 21.6474 18.7984 21.647 17.3606C21.647 17.2567 21.6318 17.1684 21.7818 17.1305C21.9228 17.0942 21.992 16.9582 21.9771 16.8063ZM18.2202 14.2161C19.4471 13.9536 20.5959 14.843 20.6486 16.0973C20.6654 16.4973 20.6654 16.4973 20.2666 16.4973H18.6495C18.0456 16.4973 17.4413 16.4911 16.8374 16.5016C16.6761 16.5047 16.6483 16.4504 16.6487 16.3043C16.6514 15.2403 17.2643 14.4208 18.2202 14.2161ZM20.8303 21.8359C19.3803 21.8339 17.9299 21.8331 16.48 21.8374C16.3557 21.8374 16.3167 21.8101 16.3175 21.6792C16.3241 20.9566 16.3206 20.2347 16.3206 19.5121C16.3206 18.7832 16.3241 18.0539 16.3175 17.325C16.3163 17.1965 16.3503 17.1528 16.4792 17.1637C16.6393 17.1774 16.8495 17.1153 16.9503 17.1957C17.0585 17.2813 16.9827 17.4996 16.9839 17.6594C16.9885 18.2453 16.9854 18.8309 16.9858 19.4168C16.9862 19.6754 17.1151 19.8355 17.3182 19.8355C17.5217 19.8355 17.6499 19.6758 17.6503 19.4168C17.6506 18.7203 17.6534 18.0238 17.6471 17.3274C17.646 17.2016 17.6764 17.1524 17.8073 17.1641C17.9682 17.1778 18.1768 17.1157 18.2788 17.1961C18.3885 17.2817 18.3084 17.4996 18.3131 17.6594C18.3206 17.9 18.3147 18.1414 18.3151 18.382C18.3155 18.6801 18.4319 18.8336 18.6537 18.8309C18.8705 18.8281 18.9795 18.6832 18.9799 18.3934C18.9803 18.0356 18.9846 17.6778 18.9772 17.3196C18.9744 17.202 19.0041 17.1625 19.1276 17.1641C19.6998 17.17 20.2721 17.1684 20.8443 17.1645C20.9424 17.1641 20.9807 17.1891 20.9807 17.2949C20.9775 18.7656 20.9771 20.2371 20.981 21.7078C20.9826 21.8331 20.9252 21.8359 20.8303 21.8359Z" fill="#27282D"/>
</g>
</g>
</svg>
